# xmcd
#
# Track frame offsets:
#	150
#	27545
#	60040
#	87644
#	112759
#	144205
#	161823
#	199572
#
# Disc length: 2991 seconds
# Revision: 0
# Processed by: cddbd v1.5.2PL0 Copyright (c) Steve Scherf et al.
# Submitted via: dBpowerAMP V12.0
#
DISCID=5e0bad08
DTITLE=Irun Toh - Where Reality Sleeps
DYEAR=2012
DGENRE=Psychedelic Rock
TTITLE0=Building the Stone Again
TTITLE1=The Island Song
TTITLE2=Ride With Me
TTITLE3=Three Seasons
TTITLE4=Oralius
TTITLE5=All You Will
TTITLE6=Day of the Fall
TTITLE7=Reminisce of Keef
EXTD=
EXTT0=
EXTT1=
EXTT2=
EXTT3=
EXTT4=
EXTT5=
EXTT6=
EXTT7=
PLAYORDER=
